<svg width="26" height="26" viewBox="0 0 26 26" fill="none" xmlns="http://www.w3.org/2000/svg">
<circle cx="13" cy="13" r="12.25" fill="#FDFFE3" stroke="#F7BA1C" stroke-width="1.5"/>
<mask id="mask0_5190_18350" style="mask-type:alpha" maskUnits="userSpaceOnUse" x="1" y="0" width="24" height="24">
<rect x="1" width="24" height="24" fill="#D9D9D9"/>
</mask>
<g mask="url(#mask0_5190_18350)">
<path d="M13 3.32129C15.3314 5.37406 17.0683 7.25829 18.2227 8.97754C19.432 10.7788 20 12.3833 20 13.8008C19.9999 15.8727 19.3294 17.5761 17.998 18.9463C16.668 20.315 15.0139 21 13 21C10.9861 21 9.33199 20.315 8.00195 18.9463C6.6706 17.5761 6.0001 15.8727 6 13.8008C6 12.3833 6.56798 10.7788 7.77734 8.97754C8.9317 7.25829 10.6686 5.37406 13 3.32129ZM8.84473 13.6543C8.55983 13.6543 8.30358 13.7536 8.09961 13.9414L8.01562 14.0273C7.77122 14.3027 7.71608 14.6443 7.78125 14.9756V14.9766C8.07166 16.5359 8.79041 17.7147 9.97656 18.4287C11.0792 19.0924 12.1833 19.4135 13.2773 19.3457L13.2852 19.3447H13.2939C13.5718 19.3182 13.8272 19.2089 14.0303 19.0059C14.238 18.7981 14.3466 18.5334 14.3467 18.2412C14.3467 17.9308 14.2368 17.636 13.9893 17.418C13.7777 17.2317 13.5234 17.1498 13.2598 17.1504L13.1543 17.1553C12.5971 17.196 11.9506 17.0359 11.2021 16.6172C10.5573 16.2562 10.1227 15.6206 9.94238 14.6143L9.94043 14.6064L9.88965 14.417C9.82588 14.2326 9.72162 14.0639 9.56738 13.9268H9.56836C9.36423 13.745 9.11415 13.6544 8.84473 13.6543Z" fill="#F7BA1C" stroke="#DAA008"/>
</g>
</svg>
