<svg width="26" height="26" viewBox="0 0 26 26" fill="none" xmlns="http://www.w3.org/2000/svg">
<circle cx="13" cy="13" r="12.25" fill="#FDFFE3" stroke="#F7BA1C" stroke-width="1.5"/>
<mask id="mask0_5190_18350" style="mask-type:alpha" maskUnits="userSpaceOnUse" x="1" y="0" width="24" height="24">
<rect x="1" width="24" height="24" fill="#D9D9D9"/>
</mask>
<g mask="url(#mask0_5190_18350)">
<path d="M13.2463 18.8465C13.4206 18.8299 13.5642 18.7651 13.677 18.6523C13.7898 18.5395 13.8462 18.4023 13.8462 18.2408C13.8462 18.0523 13.784 17.9032 13.6595 17.7935C13.5352 17.6839 13.3788 17.6374 13.1905 17.654C12.5072 17.704 11.7629 17.5038 10.9577 17.0533C10.1526 16.6026 9.65 15.819 9.45 14.7023C9.41667 14.5318 9.34517 14.3978 9.2355 14.3003C9.126 14.2028 8.99558 14.154 8.84425 14.154C8.66225 14.154 8.51067 14.2224 8.3895 14.359C8.26833 14.4955 8.2295 14.6708 8.273 14.8848C8.5435 16.3375 9.19742 17.376 10.2348 18.0003C11.2719 18.6246 12.2758 18.9067 13.2463 18.8465ZM13 21.5003C10.8577 21.5003 9.07208 20.765 7.64325 19.2945C6.21442 17.824 5.5 15.9926 5.5 13.8003C5.5 12.249 6.12083 10.5486 7.3625 8.6993C8.60417 6.84996 10.4833 4.83496 13 2.6543C15.5167 4.83496 17.3958 6.84996 18.6375 8.6993C19.8792 10.5486 20.5 12.249 20.5 13.8003C20.5 15.9926 19.7856 17.824 18.3568 19.2945C16.9279 20.765 15.1423 21.5003 13 21.5003Z" fill="#F7BA1C"/>
</g>
</svg>
